
<svg xmlns="http://www.w3.org/2000/svg" viewBox="0 0 512 512">
  <defs>
    <!-- Gradientes para o fundo -->
    <linearGradient id="bgGrad" x1="0%" y1="0%" x2="100%" y2="100%">
      <stop offset="0%" style="stop-color:#eff6ff;stop-opacity:1" /> <!-- Azul muito claro -->
      <stop offset="100%" style="stop-color:#dbeafe;stop-opacity:1" /> <!-- Azul claro -->
    </linearGradient>
    <linearGradient id="swooshGrad" x1="0%" y1="0%" x2="100%" y2="100%">
      <stop offset="0%" style="stop-color:#607AFB;stop-opacity:1" /> <!-- Cor Primária da App -->
      <stop offset="100%" style="stop-color:#3b82f6;stop-opacity:1" /> <!-- Azul -->
    </linearGradient>
    <filter id="shadow" x="-20%" y="-20%" width="140%" height="140%">
      <feDropShadow dx="0" dy="4" stdDeviation="6" flood-color="#000" flood-opacity="0.15"/>
    </filter>
  </defs>

  <!-- 1. Fundo Circular -->
  <circle cx="256" cy="256" r="256" fill="url(#bgGrad)" />

  <!-- 2. Elemento Decorativo (Swoosh) -->
  <path d="M-50 200 Q 150 50 350 100 T 600 300 V 600 H -50 Z" fill="url(#swooshGrad)" opacity="0.3" />
  
  <!-- 3. Raquete (Atrás) -->
  <g transform="translate(220, 220) rotate(-25)" filter="url(#shadow)">
     <!-- Cabo -->
     <rect x="-25" y="120" width="50" height="140" rx="10" fill="#1e293b" />
     <!-- Grips do Cabo -->
     <path d="M-25 140 L25 140" stroke="#334155" stroke-width="4" />
     <path d="M-25 160 L25 160" stroke="#334155" stroke-width="4" />
     <path d="M-25 180 L25 180" stroke="#334155" stroke-width="4" />
     <path d="M-25 200 L25 200" stroke="#334155" stroke-width="4" />

     <!-- Coração da Raquete -->
     <path d="M-20 120 L-40 20 L40 20 L20 120 Z" fill="#ffffff" stroke="#1e293b" stroke-width="8" stroke-linejoin="round"/>
     
     <!-- Cabeça -->
     <ellipse cx="0" cy="-80" rx="110" ry="130" fill="#ffffff" stroke="#1e293b" stroke-width="10" />
     
     <!-- Furos -->
     <g fill="#1e293b" opacity="0.8">
        <circle cx="0" cy="-80" r="8" />
        <circle cx="35" cy="-80" r="8" />
        <circle cx="-35" cy="-80" r="8" />
        <circle cx="0" cy="-45" r="8" />
        <circle cx="0" cy="-115" r="8" />
        <circle cx="35" cy="-45" r="8" />
        <circle cx="-35" cy="-45" r="8" />
        <circle cx="35" cy="-115" r="8" />
        <circle cx="-35" cy="-115" r="8" />
        <circle cx="65" cy="-80" r="8" />
        <circle cx="-65" cy="-80" r="8" />
     </g>
  </g>

  <!-- 4. Bola de Padel -->
  <g transform="translate(380, 240)" filter="url(#shadow)">
     <circle cx="0" cy="0" r="45" fill="#ffffff" stroke="#1e293b" stroke-width="8" />
     <!-- Costuras -->
     <path d="M-25 -25 Q 0 0 -25 25" fill="none" stroke="#1e293b" stroke-width="6" stroke-linecap="round"/>
     <path d="M25 -25 Q 0 0 25 25" fill="none" stroke="#1e293b" stroke-width="6" stroke-linecap="round"/>
  </g>

  <!-- 5. Prancheta de Gestão (Frente) -->
  <g transform="translate(320, 380) rotate(-10)" filter="url(#shadow)">
     <!-- Tábua -->
     <rect x="-80" y="-100" width="160" height="200" rx="20" fill="#ffffff" stroke="#1e293b" stroke-width="10" />
     <!-- Mola -->
     <rect x="-50" y="-110" width="100" height="30" rx="5" fill="#94a3b8" stroke="#1e293b" stroke-width="6" />
     <circle cx="0" cy="-100" r="8" fill="#ffffff" />

     <!-- Conteúdo (Checklist) -->
     <g transform="translate(-50, -40)">
        <!-- Item 1 -->
        <path d="M-10 0 L0 10 L15 -10" fill="none" stroke="#10b981" stroke-width="8" stroke-linecap="round" stroke-linejoin="round" />
        <line x1="30" y1="0" x2="120" y2="0" stroke="#1e293b" stroke-width="6" stroke-linecap="round" />
        
        <!-- Item 2 -->
        <path d="M-10 50 L0 60 L15 40" fill="none" stroke="#10b981" stroke-width="8" stroke-linecap="round" stroke-linejoin="round" />
        <line x1="30" y1="50" x2="120" y2="50" stroke="#1e293b" stroke-width="6" stroke-linecap="round" />
        
        <!-- Item 3 -->
        <path d="M-10 100 L0 110 L15 90" fill="none" stroke="#10b981" stroke-width="8" stroke-linecap="round" stroke-linejoin="round" />
        <line x1="30" y1="100" x2="120" y2="100" stroke="#1e293b" stroke-width="6" stroke-linecap="round" />
     </g>
  </g>

  <!-- 6. Brilhos / Estrelas -->
  <g fill="#1e293b">
    <path d="M100 80 L110 110 L140 120 L110 130 L100 160 L90 130 L60 120 L90 110 Z" />
    <path d="M450 100 L455 115 L470 120 L455 125 L450 140 L445 125 L430 120 L445 115 Z" />
    <path d="M80 350 L85 360 L95 365 L85 370 L80 380 L75 370 L65 365 L75 360 Z" />
  </g>
</svg>
