
<svg xmlns="http://www.w3.org/2000/svg" viewBox="0 0 512 512">
  <defs>
    <linearGradient id="bg" x1="0" y1="0" x2="1" y2="1">
      <stop offset="0" stop-color="#eff6ff"/>
      <stop offset="1" stop-color="#dbeafe"/>
    </linearGradient>
    <linearGradient id="sw" x1="0" y1="0" x2="1" y2="1">
      <stop offset="0" stop-color="#607AFB"/>
      <stop offset="1" stop-color="#3b82f6"/>
    </linearGradient>
    <filter id="sh" x="-20%" y="-20%" width="140%" height="140%">
      <feDropShadow dx="0" dy="8" stdDeviation="8" flood-color="#0f1323" flood-opacity="0.2"/>
    </filter>
  </defs>
  
  <!-- Fundo Circular -->
  <circle cx="256" cy="256" r="256" fill="url(#bg)"/>
  
  <!-- Conteúdo Principal (Escala 90% para margem de segurança) -->
  <g transform="translate(25.6, 25.6) scale(0.9)">
    <!-- Elemento Decorativo (Swoosh) -->
    <path d="M0 256 Q 150 50 350 100 T 512 300 V 512 H 0 Z" fill="url(#sw)" opacity="0.3"/>
    
    <!-- Raquete (Atrás) -->
    <g transform="translate(220, 200) rotate(-25)" filter="url(#sh)">
         <!-- Cabo -->
         <rect x="-25" y="120" width="50" height="140" rx="10" fill="#1e293b" />
         <path d="M-25 140 H25 M-25 160 H25 M-25 180 H25 M-25 200 H25" stroke="#334155" stroke-width="4" />
         
         <!-- Cabeça da Raquete -->
         <path d="M-20 120 L-40 20 L40 20 L20 120 Z" fill="#ffffff" stroke="#1e293b" stroke-width="8" stroke-linejoin="round"/>
         <ellipse cx="0" cy="-80" rx="110" ry="130" fill="#ffffff" stroke="#1e293b" stroke-width="10" />
         
         <!-- Furos -->
         <g fill="#1e293b" opacity="0.8">
            <circle cx="0" cy="-80" r="8" /><circle cx="35" cy="-80" r="8" /><circle cx="-35" cy="-80" r="8" />
            <circle cx="0" cy="-45" r="8" /><circle cx="0" cy="-115" r="8" /><circle cx="35" cy="-45" r="8" />
            <circle cx="-35" cy="-45" r="8" /><circle cx="35" cy="-115" r="8" /><circle cx="-35" cy="-115" r="8" />
            <circle cx="65" cy="-80" r="8" /><circle cx="-65" cy="-80" r="8" />
         </g>
    </g>

    <!-- Bola de Padel -->
    <g transform="translate(380, 240)" filter="url(#sh)">
         <circle r="45" fill="#ffffff" stroke="#1e293b" stroke-width="8" />
         <path d="M-25 -25 Q 0 0 -25 25 M25 -25 Q 0 0 25 25" fill="none" stroke="#1e293b" stroke-width="6" stroke-linecap="round"/>
    </g>

    <!-- Prancheta (Frente) -->
    <g transform="translate(320, 360) rotate(-10)" filter="url(#sh)">
         <rect x="-80" y="-100" width="160" height="200" rx="20" fill="#ffffff" stroke="#1e293b" stroke-width="10" />
         <rect x="-50" y="-110" width="100" height="30" rx="5" fill="#94a3b8" stroke="#1e293b" stroke-width="6" />
         <circle cx="0" cy="-100" r="8" fill="#ffffff" />
         <g transform="translate(-50, -40)">
            <path d="M-10 0 L0 10 L15 -10" fill="none" stroke="#10b981" stroke-width="8" stroke-linecap="round" stroke-linejoin="round" />
            <line x1="30" y1="0" x2="120" y2="0" stroke="#1e293b" stroke-width="6" stroke-linecap="round" />
            <path d="M-10 50 L0 60 L15 40" fill="none" stroke="#10b981" stroke-width="8" stroke-linecap="round" stroke-linejoin="round" />
            <line x1="30" y1="50" x2="120" y2="50" stroke="#1e293b" stroke-width="6" stroke-linecap="round" />
            <path d="M-10 100 L0 110 L15 90" fill="none" stroke="#10b981" stroke-width="8" stroke-linecap="round" stroke-linejoin="round" />
            <line x1="30" y1="100" x2="120" y2="100" stroke="#1e293b" stroke-width="6" stroke-linecap="round" />
         </g>
    </g>
    
    <!-- Estrelas/Brilhos -->
     <g fill="#1e293b">
        <path d="M100 80 L110 110 L140 120 L110 130 L100 160 L90 130 L60 120 L90 110 Z" />
        <path d="M450 100 L455 115 L470 120 L455 125 L450 140 L445 125 L430 120 L445 115 Z" />
        <path d="M80 350 L85 360 L95 365 L85 370 L80 380 L75 370 L65 365 L75 360 Z" />
      </g>
  </g>
</svg>
